<?xml version="1.0" encoding="UTF-8"?>
<svg id="Layer_2" data-name="Layer 2" xmlns="http://www.w3.org/2000/svg" viewBox="0 0 608.2 223.3">
  <defs>
    <style>
      .cls-1 {
        fill: #000100;
      }
    </style>
  </defs>
  <g id="Layer_1-2" data-name="Layer 1">
    <g>
      <g>
        <path class="cls-1" d="M449.15,110.93l-3-2.13,36.69-35.6-26.35-27.75c-19.35,24.04-41.03,37.25-71.59,43.64v36.99c49.4,9.09,85.22,46.03,94.27,97.21h35.45c-1.86-23.11-8.63-44.61-20.14-63.96-11.11-18.68-26.36-34.97-45.33-48.41Z"/>
        <path class="cls-1" d="M514.65,0h-36.33c4.35,46.27,26.58,84,66.13,112.18l3.26,2.32-3.1,2.55c-12,9.86-23.63,19.86-33.89,33.49l26.23,26.48c21.65-26,42.61-38.42,71.24-42.19v-37.54c-50.34-9.92-85.88-46.88-93.54-97.29Z"/>
      </g>
      <g>
        <path class="cls-1" d="M195.14,26.25c.76.57,1.66.87,2.59.87h.02c.1,0,.21,0,.3-.01.37-.03.72-.1,1.1-.22l44.71-16.92c1.78-.7,2.84-2.37,2.84-4.53-.1-1.38-.79-2.62-1.87-3.4-.72-.53-1.58-.8-2.47-.8-.47,0-.93.08-1.4.23l-44.51,16.35c-1.93.49-3.27,2.44-3.27,4.69.09,1.53.81,2.9,1.96,3.75Z"/>
        <path class="cls-1" d="M301.59,27.13c.56,0,1.14-.13,1.7-.38l8.78-3.62c4.44-1.73,6.89-5.25,6.89-9.9,0-5.57-3.84-10.1-8.56-10.1s-8.66,4.53-8.66,10.1c0,1.33.27,2.68.78,3.91l.24.57-2.25.93c-2.08,1.06-3.11,3.42-2.46,5.6.53,1.78,1.89,2.88,3.54,2.88ZM310.2,8.8c1.72,0,3.11,1.66,3.11,3.71,0,2.32-1.34,4.07-3.11,4.07s-3.11-1.75-3.11-4.07c0-2.04,1.39-3.71,3.11-3.71Z"/>
        <path class="cls-1" d="M210.69,156.13c-3.64,0-6.88,2.94-7.7,7.01l-9.67,38.86-11.88-36.45c-1.44-5.56-5.76-9.3-10.74-9.3s-9.29,3.78-10.62,9.23l-11.7,36.57-9.55-38.86c-.83-4.09-4.08-7.07-7.72-7.07-2.3,0-4.4,1.08-5.92,3.05-1.85,2.38-2.47,5.63-1.68,8.7l11.53,44.41c1.58,6.59,6.51,11.02,12.27,11.02s10.5-4.28,12.14-10.45l11.44-36.13,11.24,35.82c1.68,6.43,6.6,10.75,12.26,10.75s10.81-4.51,12.36-10.99l11.65-44.48c.69-3.15-.03-6.44-1.93-8.8-1.51-1.87-3.56-2.91-5.78-2.91Z"/>
        <path class="cls-1" d="M81.25,154.67c-9.94,0-18.73,4.35-23.51,11.63l-.57.87-.49-.92c-4.04-7.58-11.13-11.58-20.48-11.58-7.51,0-14.26,3.04-18.51,8.34l-.75.83-.39-1.25v-.08c-.24-4.4-3.87-7.84-8.25-7.84s-8.29,3.72-8.29,8.29v51.32c0,5.22,3.34,9.01,7.95,9.01s7.74-3.79,7.74-9.01v-22.64c0-6.9,2.19-18.47,16.86-18.47s16.96,11.42,16.96,18.23v22.88c0,5.22,3.26,9.01,7.75,9.01s7.94-3.79,7.94-9.01v-23.12c0-8.2,2.78-17.98,16.05-17.98,10.72,0,16.15,5.68,16.15,16.9v24.21c0,5.22,3.34,9.01,7.95,9.01,4.36,0,7.64-3.87,7.64-9.01v-26.39c0-20.49-12.16-33.22-31.74-33.22Z"/>
        <path class="cls-1" d="M270.66,155.91c-.37,0-.75.03-1.15.1-8.32.56-15.3,3.42-20.19,8.29l-.88.88-.16-1.24c-.58-4.39-4.03-7.82-7.86-7.82-4.25,0-7.84,4.18-7.84,9.13v48.79c0,5.02,3.64,9.25,7.95,9.25s7.85-4.24,7.85-9.25v-21.54c.09-11.55,8.51-18.73,21.96-18.73h.75c4-.29,7.25-4.27,7.25-8.88,0-4.95-3.44-8.98-7.67-8.98Z"/>
        <path class="cls-1" d="M343.3,129.61c-4.34,0-7.74,3.96-7.74,9.01v23.77l-1.07-1.18c-4.74-5.22-11.73-7.75-21.36-7.75-17.16,0-29.61,14.43-29.61,34.32,0,21.91,11.27,35.52,29.41,35.52,9.45,0,16.75-3.04,21.68-9.04l.87-1.05.22,1.35c.09.54.22,1.07.42,1.72.27,3.94,3.56,7.03,7.49,7.03,4.16,0,7.55-3.38,7.55-7.54v-77.13c0-5.05-3.45-9.01-7.85-9.01ZM316.17,206.97c-11.68,0-18.38-6.69-18.38-18.35s6.36-18.23,18.38-18.23c12.91,0,19.19,6.24,19.19,19.07,0,11.45-6.63,17.5-19.19,17.5Z"/>
        <path class="cls-1" d="M64.85,102.03h60.14c7.02,0,12.19-5.97,12.3-14.19l.2-10.8c0-9.56-3.03-22.69-9.69-28.96-8.86-8.72-22.47-10.8-32.33-11.02-.74-.02-1.49-.03-2.22-.03-7.34,0-14.13,1-19.22,1.87-2.05.4-3.82,1.58-4.99,3.32-1.3,1.93-1.75,4.32-1.27,6.75.81,4.21,3.7,6.94,7.39,6.94.44,0,.9-.04,1.37-.12,3.22-.58,9.72-1.56,17.07-1.56,8.1,0,18.99,1.23,24.87,7.05,2.83,2.64,4.36,10.09,4.36,15.76v6.9c0,.29-.08.49-.16.61l-.18.3h-57.63c-4.41,0-7.74,3.66-7.74,8.53s3.33,8.65,7.74,8.65Z"/>
        <path class="cls-1" d="M137.52,125.71c1.36,1.61,3.16,2.53,5.08,2.59.65.03,1.31.05,1.98.05,2.01,0,3.99-.14,5.91-.42,7.64-.77,14.15-3.67,18.81-8.37,5.74-6.03,8.65-14.47,8.65-25.08v-48.76c0-4.77-3.29-8.65-7.44-8.65s-7.34,3.88-7.34,8.65v48.76c0,5.6-1.2,9.54-3.64,12.01-2.47,2.88-7.16,4.34-13.92,4.34-.88,0-1.71-.03-2.49-.06h-.23c-3.65,0-6.85,3.18-7.43,7.39-.37,2.75.41,5.57,2.09,7.56Z"/>
        <path class="cls-1" d="M285.37,93.21l.52.6c4.58,5.3,10.7,8.22,17.23,8.22h21.87c5.44,0,10.72-2.43,15.29-7.03,6.78-6.81,10.94-17.4,10.88-27.63-.1-16.85-11.93-30.55-26.37-30.55h-38.37c-5.22,0-9.46,4.97-9.46,11.07v28.9c0,4.52-2.87,8.05-6.54,8.05h-14.32v-35.87c0-6.14-4.11-10.95-9.36-10.95h-30.88c-14.05,0-25.15,13.21-25.26,30.08,0,15.74,11.03,34.05,25.26,34.05h25.29l-.16.75c-.57,2.68-1.71,4.94-3.41,6.75-3.5,3.28-9.38,4.95-17.48,4.95-2.34,0-4.81-.14-7.58-.42-.31-.05-.63-.08-.94-.08-3.27,0-6.21,2.8-6.98,6.65-.49,2.51.06,5.12,1.52,7.16,1.22,1.71,2.92,2.8,4.8,3.05,2.19.34,5.59.75,9.3.75,11.57,0,20.51-3.05,26.58-9.07,5.1-4.83,8.45-12.14,9.18-20.04l.05-.56h14.39c5.53,0,10.95-3.05,14.5-8.17l.45-.65ZM291.62,55.64c0-.89.58-1.64,1.27-1.64h31.89c6.23,0,11.5,6.18,11.5,13.5,0,8.09-5.21,17.96-11.29,17.96h-21.87c-6.08,0-11.5-9.98-11.5-17.84v-11.99ZM241.51,85.1h-25.86c-5.47,0-10.28-9.27-10.38-16.87,0-7.56,4.59-13.27,10.68-13.27h24.4c.6,0,1.16.8,1.16,1.65v28.49Z"/>
      </g>
    </g>
  </g>
</svg>