<?xml version="1.0" encoding="UTF-8"?>
<svg id="Layer_2" data-name="Layer 2" xmlns="http://www.w3.org/2000/svg" viewBox="0 0 648.92 238.25">
  <defs>
    <style>
      .cls-1 {
        fill: #f48966;
      }

      .cls-2 {
        fill: #393939;
      }
    </style>
  </defs>
  <g id="Layer_1-2" data-name="Layer 1">
    <g>
      <g>
        <path class="cls-1" d="M479.23,118.36l-3.21-2.27,39.15-37.99-28.11-29.6c-20.64,25.65-43.77,39.74-76.38,46.56v39.46c52.71,9.7,90.92,49.11,100.58,103.72h37.82c-1.99-24.66-9.21-47.6-21.48-68.24-11.85-19.93-28.13-37.31-48.36-51.65Z"/>
        <path class="cls-1" d="M549.12,0h-38.76c4.64,49.37,28.36,89.62,70.56,119.69l3.48,2.48-3.31,2.72c-12.81,10.52-25.22,21.19-36.16,35.73l27.99,28.25c23.1-27.74,45.47-40.99,76.01-45.01v-40.05c-53.72-10.58-91.63-50.02-99.81-103.8Z"/>
      </g>
      <g>
        <path class="cls-2" d="M208.21,28.01c.82.61,1.77.93,2.76.93h.02c.11,0,.22,0,.32-.01.39-.03.76-.1,1.17-.24l47.71-18.06c1.89-.75,3.03-2.53,3.03-4.83-.11-1.47-.84-2.79-2-3.63-.77-.56-1.68-.86-2.63-.86-.5,0-.99.08-1.5.25l-47.49,17.45c-2.06.53-3.49,2.6-3.49,5,.1,1.63.86,3.09,2.09,4Z"/>
        <path class="cls-2" d="M321.78,28.94c.6,0,1.22-.14,1.81-.4l9.37-3.86c4.74-1.85,7.35-5.6,7.35-10.56,0-5.94-4.1-10.78-9.13-10.78s-9.24,4.83-9.24,10.78c0,1.42.29,2.86.83,4.17l.25.61-2.4.99c-2.21,1.13-3.32,3.65-2.63,5.97.57,1.89,2.01,3.07,3.78,3.07ZM330.97,9.39c1.83,0,3.32,1.78,3.32,3.96,0,2.47-1.43,4.34-3.32,4.34s-3.31-1.87-3.31-4.34c0-2.18,1.49-3.96,3.31-3.96Z"/>
        <path class="cls-2" d="M224.8,166.58c-3.89,0-7.34,3.13-8.22,7.48l-10.32,41.46-12.67-38.89c-1.54-5.94-6.14-9.92-11.46-9.92s-9.91,4.03-11.33,9.85l-12.48,39.02-10.19-41.46c-.89-4.37-4.35-7.54-8.24-7.54-2.45,0-4.7,1.15-6.32,3.25-1.97,2.54-2.64,6.01-1.79,9.28l12.31,47.38c1.68,7.03,6.94,11.75,13.09,11.75s11.2-4.57,12.95-11.15l12.21-38.55,11.99,38.22c1.79,6.86,7.05,11.47,13.08,11.47s11.54-4.82,13.19-11.73l12.43-47.46c.74-3.36-.03-6.87-2.06-9.39-1.61-2-3.8-3.1-6.17-3.1Z"/>
        <path class="cls-2" d="M86.69,165.03c-10.61,0-19.98,4.64-25.08,12.41l-.61.93-.52-.98c-4.31-8.08-11.87-12.35-21.86-12.35-8.02,0-15.22,3.25-19.75,8.9l-.8.89-.41-1.34v-.08c-.26-4.69-4.12-8.37-8.8-8.37s-8.85,3.97-8.85,8.85v54.76c0,5.57,3.57,9.61,8.48,9.61s8.26-4.04,8.26-9.61v-24.16c0-7.36,2.34-19.7,17.98-19.7s18.09,12.18,18.09,19.45v24.41c0,5.57,3.48,9.61,8.26,9.61s8.48-4.04,8.48-9.61v-24.67c0-8.75,2.97-19.19,17.12-19.19,11.43,0,17.23,6.07,17.23,18.03v25.83c0,5.57,3.56,9.61,8.48,9.61,4.65,0,8.15-4.13,8.15-9.61v-28.16c0-21.87-12.98-35.45-33.86-35.45Z"/>
        <path class="cls-2" d="M288.78,166.35c-.39,0-.8.04-1.23.11-8.87.59-16.32,3.65-21.54,8.85l-.94.94-.17-1.32c-.62-4.68-4.3-8.34-8.39-8.34-4.54,0-8.37,4.46-8.37,9.74v52.06c0,5.35,3.88,9.87,8.48,9.87s8.37-4.52,8.37-9.87v-22.98c.1-12.32,9.08-19.98,23.43-19.98h.8c4.27-.31,7.73-4.56,7.73-9.48,0-5.29-3.67-9.58-8.18-9.58Z"/>
        <path class="cls-2" d="M366.29,138.29c-4.63,0-8.25,4.22-8.25,9.61v25.36l-1.14-1.26c-5.06-5.57-12.51-8.27-22.79-8.27-18.3,0-31.59,15.4-31.59,36.62,0,23.38,12.02,37.9,31.38,37.9,10.08,0,17.87-3.25,23.13-9.65l.92-1.13.23,1.44c.09.58.23,1.14.45,1.84.29,4.2,3.8,7.5,7.99,7.5,4.44,0,8.05-3.61,8.05-8.05v-82.3c0-5.39-3.68-9.61-8.38-9.61ZM337.34,220.83c-12.46,0-19.61-7.14-19.61-19.58s6.78-19.45,19.61-19.45c13.77,0,20.47,6.66,20.47,20.35,0,12.21-7.08,18.67-20.47,18.67Z"/>
        <path class="cls-2" d="M69.19,108.87h64.16c7.49,0,13.01-6.37,13.12-15.14l.22-11.52c0-10.2-3.23-24.21-10.34-30.9-9.46-9.31-23.98-11.53-34.5-11.75-.79-.02-1.59-.03-2.37-.03-7.83,0-15.08,1.07-20.5,2-2.18.42-4.08,1.68-5.33,3.54-1.38,2.06-1.87,4.61-1.36,7.2.86,4.5,3.95,7.4,7.88,7.4.47,0,.96-.04,1.46-.13,3.44-.62,10.37-1.67,18.21-1.67,8.64,0,20.26,1.31,26.54,7.52,3.02,2.82,4.65,10.77,4.65,16.81v7.36c0,.31-.09.52-.17.65l-.19.33h-61.49c-4.71,0-8.26,3.91-8.26,9.1s3.55,9.23,8.26,9.23Z"/>
        <path class="cls-2" d="M146.73,134.13c1.45,1.72,3.37,2.7,5.42,2.76.7.03,1.4.05,2.11.05,2.14,0,4.26-.15,6.3-.44,8.16-.82,15.1-3.92,20.07-8.93,6.12-6.43,9.23-15.44,9.23-26.76v-52.03c0-5.09-3.51-9.23-7.94-9.23s-7.83,4.14-7.83,9.23v52.03c0,5.97-1.28,10.17-3.89,12.81-2.64,3.08-7.63,4.63-14.86,4.63-.94,0-1.82-.03-2.66-.07h-.24c-3.9,0-7.3,3.39-7.93,7.88-.4,2.93.44,5.95,2.23,8.07Z"/>
        <path class="cls-2" d="M304.48,99.45l.56.64c4.89,5.66,11.41,8.77,18.38,8.77h23.34c5.8,0,11.44-2.59,16.31-7.5,7.23-7.27,11.68-18.56,11.61-29.48-.11-17.97-12.73-32.6-28.14-32.6h-40.94c-5.57,0-10.09,5.3-10.09,11.81v30.84c0,4.82-3.06,8.59-6.97,8.59h-15.28v-38.28c0-6.55-4.39-11.68-9.98-11.68h-32.95c-15,0-26.83,14.1-26.95,32.09,0,16.8,11.77,36.33,26.95,36.33h26.98l-.17.8c-.61,2.86-1.83,5.27-3.64,7.2-3.73,3.5-10,5.28-18.65,5.28-2.5,0-5.13-.15-8.09-.45-.34-.06-.67-.08-1-.08-3.49,0-6.62,2.98-7.45,7.09-.53,2.68.06,5.46,1.62,7.64,1.31,1.83,3.12,2.98,5.12,3.25,2.34.36,5.96.8,9.92.8,12.34,0,21.88-3.25,28.36-9.68,5.44-5.16,9.01-12.95,9.8-21.38l.06-.6h15.35c5.9,0,11.68-3.26,15.47-8.72l.48-.7ZM311.15,59.36c0-.95.62-1.74,1.35-1.74h34.03c6.65,0,12.26,6.6,12.26,14.41,0,8.63-5.56,19.17-12.04,19.17h-23.34c-6.49,0-12.26-10.64-12.26-19.04v-12.79ZM257.69,90.8h-27.59c-5.84,0-10.97-9.89-11.08-18,0-8.07,4.9-14.16,11.4-14.16h26.03c.64,0,1.24.85,1.24,1.76v30.4Z"/>
      </g>
    </g>
  </g>
</svg>